<?xml version="1.0" standalone="no"?>
<!DOCTYPE svg PUBLIC "-//W3C//DTD SVG 20010904//EN"
 "http://www.w3.org/TR/2001/REC-SVG-20010904/DTD/svg10.dtd">
<svg version="1.0" xmlns="http://www.w3.org/2000/svg"
 width="384.000000pt" height="154.000000pt" viewBox="0 0 384.000000 154.000000"
 preserveAspectRatio="xMidYMid meet">
<metadata>
Created by potrace 1.15, written by Peter Selinger 2001-2017
</metadata>
<g transform="translate(0.000000,154.000000) scale(0.100000,-0.100000)"
fill="#000000" stroke="none">
<path d="M440 1529 c-166 -27 -345 -178 -411 -347 -27 -69 -38 -250 -20 -333
40 -186 217 -365 406 -410 80 -19 230 -14 305 10 105 33 150 100 150 222 l0
59 -132 -1 c-88 -1 -120 -4 -95 -9 44 -8 80 -36 56 -44 -8 -2 -29 -9 -48 -15
-50 -16 -160 -13 -215 5 -59 20 -157 109 -186 169 -43 88 -42 212 1 297 29 57
102 126 162 153 169 78 355 9 444 -165 l28 -55 5 -291 c5 -319 5 -314 68 -341
48 -20 107 -2 132 40 18 30 20 52 20 297 0 298 -9 364 -62 470 -45 88 -152
195 -240 238 -113 56 -234 72 -368 51z"/>
<path d="M1292 1058 c-9 -9 -12 -86 -12 -285 0 -259 1 -273 19 -283 29 -15 67
-12 82 6 10 12 15 63 19 184 5 164 5 167 33 203 37 48 75 67 135 67 56 0 82
20 82 63 0 43 -38 61 -118 55 -37 -3 -82 -13 -101 -22 -32 -17 -33 -17 -48 3
-16 24 -71 29 -91 9z"/>
<path d="M1729 1054 c-11 -14 -14 -68 -14 -281 0 -250 1 -265 19 -279 25 -18
57 -18 82 0 18 13 19 30 22 268 3 287 0 301 -59 306 -24 2 -40 -2 -50 -14z"/>
<path d="M1260 380 l0 -30 1290 0 1290 0 0 30 0 30 -1290 0 -1290 0 0 -30z"/>
<path d="M1380 231 c-6 -13 -10 -61 -8 -119 l3 -97 54 -3 c68 -4 101 22 101
79 0 51 -26 81 -72 81 -35 0 -37 2 -40 36 -3 41 -22 52 -38 23z"/>
<path d="M1856 173 c-10 -11 -7 -161 4 -168 17 -10 40 15 40 42 0 13 8 38 18
56 l17 32 3 -57 c3 -56 20 -86 42 -73 14 9 13 128 -2 147 -13 16 -110 32 -122
21z"/>
<path d="M2653 173 c-19 -7 -18 -159 0 -166 22 -8 33 5 40 46 3 22 12 46 19
54 11 14 14 8 20 -36 3 -29 10 -57 15 -62 14 -14 43 0 44 20 0 11 3 9 9 -6 16
-40 50 -19 50 30 0 32 16 67 30 67 6 0 10 -21 10 -47 0 -56 11 -78 34 -70 12
5 16 21 16 70 0 81 -11 95 -80 99 l-55 3 -3 -50 c-4 -65 -22 -85 -22 -25 0 60
-10 72 -53 69 -20 -2 -39 0 -43 4 -8 8 -13 8 -31 0z"/>
<path d="M1582 163 c-22 -9 -44 -64 -38 -96 9 -45 24 -57 72 -57 51 0 74 25
74 80 0 50 -24 80 -63 79 -18 0 -38 -3 -45 -6z"/>
<path d="M2296 149 c-21 -16 -26 -29 -26 -63 0 -52 22 -76 72 -76 42 0 67 24
74 71 12 72 -61 114 -120 68z"/>
<path d="M2976 149 c-21 -16 -26 -29 -26 -63 0 -53 22 -76 73 -76 42 0 77 36
77 80 0 15 -9 39 -21 54 -25 32 -66 34 -103 5z"/>
<path d="M3276 144 c-19 -19 -26 -37 -26 -64 0 -54 23 -70 98 -69 l61 1 -6 67
c-6 74 -19 91 -69 91 -20 0 -40 -9 -58 -26z"/>
<path d="M3581 151 c-31 -31 -37 -79 -13 -110 16 -22 27 -26 72 -26 39 0 56 4
64 17 16 26 -5 44 -33 28 -12 -6 -30 -10 -39 -8 -12 3 -4 11 26 26 44 23 56
54 30 80 -19 19 -85 15 -107 -7z"/>
</g>
</svg>
